<?xml version="1.0" encoding="us-ascii" standalone="no"?><svg xmlns="http://www.w3.org/2000/svg" xmlns:xlink="http://www.w3.org/1999/xlink" contentStyleType="text/css" height="1003px" preserveAspectRatio="none" style="width:1832px;height:1003px;background:#FFFFFF;" version="1.1" viewBox="0 0 1832 1003" width="1832px" zoomAndPan="magnify"><defs><linearGradient id="g17rckn457wgvz0" x1="50%" x2="50%" y1="0%" y2="100%"><stop offset="0%" stop-color="#FFFFFF"/><stop offset="100%" stop-color="#C2F0FF"/></linearGradient></defs><g><text fill="#000000" font-family="sans-serif" font-size="14" font-weight="bold" lengthAdjust="spacing" textLength="30" x="894" y="22.9951">npp</text><!--class address--><g id="elem_address"><rect codeLine="15" fill="url(#g17rckn457wgvz0)" height="270.4531" id="address" rx="2.5" ry="2.5" style="stroke:#778899;stroke-width:1.0;" width="269" x="7" y="526.2969"/><rect fill="url(#g17rckn457wgvz0)" height="26.2969" rx="2.5" ry="2.5" style="stroke:url(#g17rckn457wgvz0);stroke-width:1.0;" width="269" x="7" y="526.2969"/><rect fill="url(#g17rckn457wgvz0)" height="2.5" style="stroke:url(#g17rckn457wgvz0);stroke-width:1.0;" width="269" x="7" y="550.0938"/><rect codeLine="15" fill="none" height="270.4531" id="address" rx="2.5" ry="2.5" style="stroke:#778899;stroke-width:1.0;" width="269" x="7" y="526.2969"/><text fill="#000000" font-family="sans-serif" font-size="14" lengthAdjust="spacing" textLength="55" x="114" y="544.292">address</text><line style="stroke:#778899;stroke-width:1.0;" x1="8" x2="275" y1="552.5938" y2="552.5938"/><line style="stroke:#778899;stroke-width:1.0;" x1="8" x2="275" y1="560.5938" y2="560.5938"/><ellipse cx="18" cy="574.2422" fill="#000000" rx="3" ry="3" style="stroke:#000000;stroke-width:1.0;"/><text fill="#000000" font-family="sans-serif" font-size="14" lengthAdjust="spacing" textLength="75" x="27" y="577.5889">id: integer</text><text fill="#000000" font-family="sans-serif" font-size="14" lengthAdjust="spacing" textLength="112" x="27" y="593.8857">user_id: integer</text><ellipse cx="18" cy="606.8359" fill="#000000" rx="3" ry="3" style="stroke:#000000;stroke-width:1.0;"/><text fill="#000000" font-family="sans-serif" font-size="14" lengthAdjust="spacing" textLength="91" x="27" y="610.1826">name: string</text><ellipse cx="18" cy="623.1328" fill="#000000" rx="3" ry="3" style="stroke:#000000;stroke-width:1.0;"/><text fill="#000000" font-family="sans-serif" font-size="14" lengthAdjust="spacing" textLength="121" x="27" y="626.4795">firstname: string</text><ellipse cx="18" cy="639.4297" fill="#000000" rx="3" ry="3" style="stroke:#000000;stroke-width:1.0;"/><text fill="#000000" font-family="sans-serif" font-size="14" lengthAdjust="spacing" textLength="117" x="27" y="642.7764">lastname: string</text><text fill="#000000" font-family="sans-serif" font-size="14" lengthAdjust="spacing" textLength="117" x="27" y="659.0732">company: string</text><ellipse cx="18" cy="672.0234" fill="#000000" rx="3" ry="3" style="stroke:#000000;stroke-width:1.0;"/><text fill="#000000" font-family="sans-serif" font-size="14" lengthAdjust="spacing" textLength="106" x="27" y="675.3701">address: string</text><ellipse cx="18" cy="688.3203" fill="#000000" rx="3" ry="3" style="stroke:#000000;stroke-width:1.0;"/><text fill="#000000" font-family="sans-serif" font-size="14" lengthAdjust="spacing" textLength="96" x="27" y="691.667">postal: string</text><ellipse cx="18" cy="704.6172" fill="#000000" rx="3" ry="3" style="stroke:#000000;stroke-width:1.0;"/><text fill="#000000" font-family="sans-serif" font-size="14" lengthAdjust="spacing" textLength="78" x="27" y="707.9639">city: string</text><ellipse cx="18" cy="720.9141" fill="#000000" rx="3" ry="3" style="stroke:#000000;stroke-width:1.0;"/><text fill="#000000" font-family="sans-serif" font-size="14" lengthAdjust="spacing" textLength="106" x="27" y="724.2607">country: string</text><text fill="#000000" font-family="sans-serif" font-size="14" lengthAdjust="spacing" textLength="97" x="27" y="740.5576">phone: string</text><ellipse cx="18" cy="753.5078" fill="#000000" rx="3" ry="3" style="stroke:#000000;stroke-width:1.0;"/><text fill="#000000" font-family="sans-serif" font-size="14" lengthAdjust="spacing" textLength="147" x="27" y="756.8545">is_selected: boolean</text><ellipse cx="18" cy="769.8047" fill="#000000" rx="3" ry="3" style="stroke:#000000;stroke-width:1.0;"/><text fill="#000000" font-family="sans-serif" font-size="14" lengthAdjust="spacing" textLength="239" x="27" y="773.1514">created_at: datetime_immutable</text><text fill="#000000" font-family="sans-serif" font-size="14" lengthAdjust="spacing" textLength="243" x="27" y="789.4482">updated_at: datetime_immutable</text></g><!--class album--><g id="elem_album"><rect codeLine="32" fill="url(#g17rckn457wgvz0)" height="188.9688" id="album" rx="2.5" ry="2.5" style="stroke:#778899;stroke-width:1.0;" width="265" x="993" y="277.2969"/><rect fill="url(#g17rckn457wgvz0)" height="26.2969" rx="2.5" ry="2.5" style="stroke:url(#g17rckn457wgvz0);stroke-width:1.0;" width="265" x="993" y="277.2969"/><rect fill="url(#g17rckn457wgvz0)" height="2.5" style="stroke:url(#g17rckn457wgvz0);stroke-width:1.0;" width="265" x="993" y="301.0938"/><rect codeLine="32" fill="none" height="188.9688" id="album" rx="2.5" ry="2.5" style="stroke:#778899;stroke-width:1.0;" width="265" x="993" y="277.2969"/><text fill="#000000" font-family="sans-serif" font-size="14" lengthAdjust="spacing" textLength="44" x="1103.5" y="295.292">album</text><line style="stroke:#778899;stroke-width:1.0;" x1="994" x2="1257" y1="303.5938" y2="303.5938"/><line style="stroke:#778899;stroke-width:1.0;" x1="994" x2="1257" y1="311.5938" y2="311.5938"/><ellipse cx="1004" cy="325.2422" fill="#000000" rx="3" ry="3" style="stroke:#000000;stroke-width:1.0;"/><text fill="#000000" font-family="sans-serif" font-size="14" lengthAdjust="spacing" textLength="75" x="1013" y="328.5889">id: integer</text><ellipse cx="1004" cy="341.5391" fill="#000000" rx="3" ry="3" style="stroke:#000000;stroke-width:1.0;"/><text fill="#000000" font-family="sans-serif" font-size="14" lengthAdjust="spacing" textLength="146" x="1013" y="344.8857">category_id: integer</text><text fill="#000000" font-family="sans-serif" font-size="14" lengthAdjust="spacing" textLength="139" x="1013" y="361.1826">product_id: integer</text><ellipse cx="1004" cy="374.1328" fill="#000000" rx="3" ry="3" style="stroke:#000000;stroke-width:1.0;"/><text fill="#000000" font-family="sans-serif" font-size="14" lengthAdjust="spacing" textLength="91" x="1013" y="377.4795">name: string</text><ellipse cx="1004" cy="390.4297" fill="#000000" rx="3" ry="3" style="stroke:#000000;stroke-width:1.0;"/><text fill="#000000" font-family="sans-serif" font-size="14" lengthAdjust="spacing" textLength="239" x="1013" y="393.7764">created_at: datetime_immutable</text><text fill="#000000" font-family="sans-serif" font-size="14" lengthAdjust="spacing" textLength="150" x="1013" y="410.0732">cover_picture: string</text><ellipse cx="1004" cy="423.0234" fill="#000000" rx="3" ry="3" style="stroke:#000000;stroke-width:1.0;"/><text fill="#000000" font-family="sans-serif" font-size="14" lengthAdjust="spacing" textLength="127" x="1013" y="426.3701">morning: boolean</text><ellipse cx="1004" cy="439.3203" fill="#000000" rx="3" ry="3" style="stroke:#000000;stroke-width:1.0;"/><text fill="#000000" font-family="sans-serif" font-size="14" lengthAdjust="spacing" textLength="129" x="1013" y="442.667">is_active: boolean</text><text fill="#000000" font-family="sans-serif" font-size="14" lengthAdjust="spacing" textLength="229" x="1013" y="458.9639">expire_at: datetime_immutable</text></g><!--class cart--><g id="elem_cart"><rect codeLine="44" fill="url(#g17rckn457wgvz0)" height="74.8906" id="cart" rx="2.5" ry="2.5" style="stroke:#778899;stroke-width:1.0;" width="150" x="687.5" y="623.7969"/><rect fill="url(#g17rckn457wgvz0)" height="26.2969" rx="2.5" ry="2.5" style="stroke:url(#g17rckn457wgvz0);stroke-width:1.0;" width="150" x="687.5" y="623.7969"/><rect fill="url(#g17rckn457wgvz0)" height="2.5" style="stroke:url(#g17rckn457wgvz0);stroke-width:1.0;" width="150" x="687.5" y="647.5938"/><rect codeLine="44" fill="none" height="74.8906" id="cart" rx="2.5" ry="2.5" style="stroke:#778899;stroke-width:1.0;" width="150" x="687.5" y="623.7969"/><text fill="#000000" font-family="sans-serif" font-size="14" lengthAdjust="spacing" textLength="29" x="748" y="641.792">cart</text><line style="stroke:#778899;stroke-width:1.0;" x1="688.5" x2="836.5" y1="650.0938" y2="650.0938"/><line style="stroke:#778899;stroke-width:1.0;" x1="688.5" x2="836.5" y1="658.0938" y2="658.0938"/><ellipse cx="698.5" cy="671.7422" fill="#000000" rx="3" ry="3" style="stroke:#000000;stroke-width:1.0;"/><text fill="#000000" font-family="sans-serif" font-size="14" lengthAdjust="spacing" textLength="75" x="707.5" y="675.0889">id: integer</text><text fill="#000000" font-family="sans-serif" font-size="14" lengthAdjust="spacing" textLength="119" x="707.5" y="691.3857">cookie_id: string</text></g><!--class cart_line--><g id="elem_cart_line"><rect codeLine="49" fill="url(#g17rckn457wgvz0)" height="123.7813" id="cart_line" rx="2.5" ry="2.5" style="stroke:#778899;stroke-width:1.0;" width="265" x="630" y="309.7969"/><rect fill="url(#g17rckn457wgvz0)" height="26.2969" rx="2.5" ry="2.5" style="stroke:url(#g17rckn457wgvz0);stroke-width:1.0;" width="265" x="630" y="309.7969"/><rect fill="url(#g17rckn457wgvz0)" height="2.5" style="stroke:url(#g17rckn457wgvz0);stroke-width:1.0;" width="265" x="630" y="333.5938"/><rect codeLine="49" fill="none" height="123.7813" id="cart_line" rx="2.5" ry="2.5" style="stroke:#778899;stroke-width:1.0;" width="265" x="630" y="309.7969"/><text fill="#000000" font-family="sans-serif" font-size="14" lengthAdjust="spacing" textLength="62" x="731.5" y="327.792">cart_line</text><line style="stroke:#778899;stroke-width:1.0;" x1="631" x2="894" y1="336.0938" y2="336.0938"/><line style="stroke:#778899;stroke-width:1.0;" x1="631" x2="894" y1="344.0938" y2="344.0938"/><ellipse cx="641" cy="357.7422" fill="#000000" rx="3" ry="3" style="stroke:#000000;stroke-width:1.0;"/><text fill="#000000" font-family="sans-serif" font-size="14" lengthAdjust="spacing" textLength="75" x="650" y="361.0889">id: integer</text><text fill="#000000" font-family="sans-serif" font-size="14" lengthAdjust="spacing" textLength="111" x="650" y="377.3857">cart_id: integer</text><text fill="#000000" font-family="sans-serif" font-size="14" lengthAdjust="spacing" textLength="134" x="650" y="393.6826">picture_id: integer</text><text fill="#000000" font-family="sans-serif" font-size="14" lengthAdjust="spacing" textLength="239" x="650" y="409.9795">created_at: datetime_immutable</text><text fill="#000000" font-family="sans-serif" font-size="14" lengthAdjust="spacing" textLength="122" x="650" y="426.2764">quantity: integer</text></g><!--class category--><g id="elem_category"><rect codeLine="57" fill="url(#g17rckn457wgvz0)" height="107.4844" id="category" rx="2.5" ry="2.5" style="stroke:#778899;stroke-width:1.0;" width="269" x="873" y="607.7969"/><rect fill="url(#g17rckn457wgvz0)" height="26.2969" rx="2.5" ry="2.5" style="stroke:url(#g17rckn457wgvz0);stroke-width:1.0;" width="269" x="873" y="607.7969"/><rect fill="url(#g17rckn457wgvz0)" height="2.5" style="stroke:url(#g17rckn457wgvz0);stroke-width:1.0;" width="269" x="873" y="631.5938"/><rect codeLine="57" fill="none" height="107.4844" id="category" rx="2.5" ry="2.5" style="stroke:#778899;stroke-width:1.0;" width="269" x="873" y="607.7969"/><text fill="#000000" font-family="sans-serif" font-size="14" lengthAdjust="spacing" textLength="64" x="975.5" y="625.792">category</text><line style="stroke:#778899;stroke-width:1.0;" x1="874" x2="1141" y1="634.0938" y2="634.0938"/><line style="stroke:#778899;stroke-width:1.0;" x1="874" x2="1141" y1="642.0938" y2="642.0938"/><ellipse cx="884" cy="655.7422" fill="#000000" rx="3" ry="3" style="stroke:#000000;stroke-width:1.0;"/><text fill="#000000" font-family="sans-serif" font-size="14" lengthAdjust="spacing" textLength="75" x="893" y="659.0889">id: integer</text><ellipse cx="884" cy="672.0391" fill="#000000" rx="3" ry="3" style="stroke:#000000;stroke-width:1.0;"/><text fill="#000000" font-family="sans-serif" font-size="14" lengthAdjust="spacing" textLength="91" x="893" y="675.3857">name: string</text><ellipse cx="884" cy="688.3359" fill="#000000" rx="3" ry="3" style="stroke:#000000;stroke-width:1.0;"/><text fill="#000000" font-family="sans-serif" font-size="14" lengthAdjust="spacing" textLength="239" x="893" y="691.6826">created_at: datetime_immutable</text><text fill="#000000" font-family="sans-serif" font-size="14" lengthAdjust="spacing" textLength="243" x="893" y="707.9795">updated_at: datetime_immutable</text></g><!--class director--><g id="elem_director"><rect codeLine="64" fill="url(#g17rckn457wgvz0)" height="91.1875" id="director" rx="2.5" ry="2.5" style="stroke:#778899;stroke-width:1.0;" width="154" x="1364.5" y="326.2969"/><rect fill="url(#g17rckn457wgvz0)" height="26.2969" rx="2.5" ry="2.5" style="stroke:url(#g17rckn457wgvz0);stroke-width:1.0;" width="154" x="1364.5" y="326.2969"/><rect fill="url(#g17rckn457wgvz0)" height="2.5" style="stroke:url(#g17rckn457wgvz0);stroke-width:1.0;" width="154" x="1364.5" y="350.0938"/><rect codeLine="64" fill="none" height="91.1875" id="director" rx="2.5" ry="2.5" style="stroke:#778899;stroke-width:1.0;" width="154" x="1364.5" y="326.2969"/><text fill="#000000" font-family="sans-serif" font-size="14" lengthAdjust="spacing" textLength="58" x="1412.5" y="344.292">director</text><line style="stroke:#778899;stroke-width:1.0;" x1="1365.5" x2="1517.5" y1="352.5938" y2="352.5938"/><line style="stroke:#778899;stroke-width:1.0;" x1="1365.5" x2="1517.5" y1="360.5938" y2="360.5938"/><ellipse cx="1375.5" cy="374.2422" fill="#000000" rx="3" ry="3" style="stroke:#000000;stroke-width:1.0;"/><text fill="#000000" font-family="sans-serif" font-size="14" lengthAdjust="spacing" textLength="75" x="1384.5" y="377.5889">id: integer</text><ellipse cx="1375.5" cy="390.5391" fill="#000000" rx="3" ry="3" style="stroke:#000000;stroke-width:1.0;"/><text fill="#000000" font-family="sans-serif" font-size="14" lengthAdjust="spacing" textLength="124" x="1384.5" y="393.8857">last_name: string</text><text fill="#000000" font-family="sans-serif" font-size="14" lengthAdjust="spacing" textLength="128" x="1384.5" y="410.1826">first_name: string</text></g><!--class discount--><g id="elem_discount"><rect codeLine="70" fill="url(#g17rckn457wgvz0)" height="140.0781" id="discount" rx="2.5" ry="2.5" style="stroke:#778899;stroke-width:1.0;" width="269" x="383" y="591.2969"/><rect fill="url(#g17rckn457wgvz0)" height="26.2969" rx="2.5" ry="2.5" style="stroke:url(#g17rckn457wgvz0);stroke-width:1.0;" width="269" x="383" y="591.2969"/><rect fill="url(#g17rckn457wgvz0)" height="2.5" style="stroke:url(#g17rckn457wgvz0);stroke-width:1.0;" width="269" x="383" y="615.0938"/><rect codeLine="70" fill="none" height="140.0781" id="discount" rx="2.5" ry="2.5" style="stroke:#778899;stroke-width:1.0;" width="269" x="383" y="591.2969"/><text fill="#000000" font-family="sans-serif" font-size="14" lengthAdjust="spacing" textLength="61" x="487" y="609.292">discount</text><line style="stroke:#778899;stroke-width:1.0;" x1="384" x2="651" y1="617.5938" y2="617.5938"/><line style="stroke:#778899;stroke-width:1.0;" x1="384" x2="651" y1="625.5938" y2="625.5938"/><ellipse cx="394" cy="639.2422" fill="#000000" rx="3" ry="3" style="stroke:#000000;stroke-width:1.0;"/><text fill="#000000" font-family="sans-serif" font-size="14" lengthAdjust="spacing" textLength="75" x="403" y="642.5889">id: integer</text><ellipse cx="394" cy="655.5391" fill="#000000" rx="3" ry="3" style="stroke:#000000;stroke-width:1.0;"/><text fill="#000000" font-family="sans-serif" font-size="14" lengthAdjust="spacing" textLength="82" x="403" y="658.8857">title: string</text><ellipse cx="394" cy="671.8359" fill="#000000" rx="3" ry="3" style="stroke:#000000;stroke-width:1.0;"/><text fill="#000000" font-family="sans-serif" font-size="14" lengthAdjust="spacing" textLength="73" x="403" y="675.1826">rate: float</text><ellipse cx="394" cy="688.1328" fill="#000000" rx="3" ry="3" style="stroke:#000000;stroke-width:1.0;"/><text fill="#000000" font-family="sans-serif" font-size="14" lengthAdjust="spacing" textLength="239" x="403" y="691.4795">created_at: datetime_immutable</text><text fill="#000000" font-family="sans-serif" font-size="14" lengthAdjust="spacing" textLength="243" x="403" y="707.7764">updated_at: datetime_immutable</text><ellipse cx="394" cy="720.7266" fill="#000000" rx="3" ry="3" style="stroke:#000000;stroke-width:1.0;"/><text fill="#000000" font-family="sans-serif" font-size="14" lengthAdjust="spacing" textLength="115" x="403" y="724.0732">articles: integer</text></g><!--class film--><g id="elem_film"><rect codeLine="79" fill="url(#g17rckn457wgvz0)" height="123.7813" id="film" rx="2.5" ry="2.5" style="stroke:#778899;stroke-width:1.0;" width="166" x="1358.5" y="68.7969"/><rect fill="url(#g17rckn457wgvz0)" height="26.2969" rx="2.5" ry="2.5" style="stroke:url(#g17rckn457wgvz0);stroke-width:1.0;" width="166" x="1358.5" y="68.7969"/><rect fill="url(#g17rckn457wgvz0)" height="2.5" style="stroke:url(#g17rckn457wgvz0);stroke-width:1.0;" width="166" x="1358.5" y="92.5938"/><rect codeLine="79" fill="none" height="123.7813" id="film" rx="2.5" ry="2.5" style="stroke:#778899;stroke-width:1.0;" width="166" x="1358.5" y="68.7969"/><text fill="#000000" font-family="sans-serif" font-size="14" lengthAdjust="spacing" textLength="28" x="1427.5" y="86.792">film</text><line style="stroke:#778899;stroke-width:1.0;" x1="1359.5" x2="1523.5" y1="95.0938" y2="95.0938"/><line style="stroke:#778899;stroke-width:1.0;" x1="1359.5" x2="1523.5" y1="103.0938" y2="103.0938"/><ellipse cx="1369.5" cy="116.7422" fill="#000000" rx="3" ry="3" style="stroke:#000000;stroke-width:1.0;"/><text fill="#000000" font-family="sans-serif" font-size="14" lengthAdjust="spacing" textLength="75" x="1378.5" y="120.0889">id: integer</text><text fill="#000000" font-family="sans-serif" font-size="14" lengthAdjust="spacing" textLength="140" x="1378.5" y="136.3857">director_id: integer</text><ellipse cx="1369.5" cy="149.3359" fill="#000000" rx="3" ry="3" style="stroke:#000000;stroke-width:1.0;"/><text fill="#000000" font-family="sans-serif" font-size="14" lengthAdjust="spacing" textLength="82" x="1378.5" y="152.6826">title: string</text><text fill="#000000" font-family="sans-serif" font-size="14" lengthAdjust="spacing" textLength="133" x="1378.5" y="168.9795">description: string</text><text fill="#000000" font-family="sans-serif" font-size="14" lengthAdjust="spacing" textLength="95" x="1378.5" y="185.2764">photo: string</text></g><!--class invoice--><g id="elem_invoice"><rect codeLine="87" fill="url(#g17rckn457wgvz0)" height="156.375" id="invoice" rx="2.5" ry="2.5" style="stroke:#778899;stroke-width:1.0;" width="269" x="7" y="52.7969"/><rect fill="url(#g17rckn457wgvz0)" height="26.2969" rx="2.5" ry="2.5" style="stroke:url(#g17rckn457wgvz0);stroke-width:1.0;" width="269" x="7" y="52.7969"/><rect fill="url(#g17rckn457wgvz0)" height="2.5" style="stroke:url(#g17rckn457wgvz0);stroke-width:1.0;" width="269" x="7" y="76.5938"/><rect codeLine="87" fill="none" height="156.375" id="invoice" rx="2.5" ry="2.5" style="stroke:#778899;stroke-width:1.0;" width="269" x="7" y="52.7969"/><text fill="#000000" font-family="sans-serif" font-size="14" lengthAdjust="spacing" textLength="51" x="116" y="70.792">invoice</text><line style="stroke:#778899;stroke-width:1.0;" x1="8" x2="275" y1="79.0938" y2="79.0938"/><line style="stroke:#778899;stroke-width:1.0;" x1="8" x2="275" y1="87.0938" y2="87.0938"/><ellipse cx="18" cy="100.7422" fill="#000000" rx="3" ry="3" style="stroke:#000000;stroke-width:1.0;"/><text fill="#000000" font-family="sans-serif" font-size="14" lengthAdjust="spacing" textLength="75" x="27" y="104.0889">id: integer</text><text fill="#000000" font-family="sans-serif" font-size="14" lengthAdjust="spacing" textLength="139" x="27" y="120.3857">ordered_id: integer</text><text fill="#000000" font-family="sans-serif" font-size="14" lengthAdjust="spacing" textLength="137" x="27" y="136.6826">address_id: integer</text><ellipse cx="18" cy="149.6328" fill="#000000" rx="3" ry="3" style="stroke:#000000;stroke-width:1.0;"/><text fill="#000000" font-family="sans-serif" font-size="14" lengthAdjust="spacing" textLength="107" x="27" y="152.9795">number: string</text><ellipse cx="18" cy="165.9297" fill="#000000" rx="3" ry="3" style="stroke:#000000;stroke-width:1.0;"/><text fill="#000000" font-family="sans-serif" font-size="14" lengthAdjust="spacing" textLength="239" x="27" y="169.2764">created_at: datetime_immutable</text><text fill="#000000" font-family="sans-serif" font-size="14" lengthAdjust="spacing" textLength="243" x="27" y="185.5732">updated_at: datetime_immutable</text><text fill="#000000" font-family="sans-serif" font-size="14" lengthAdjust="spacing" textLength="78" x="27" y="201.8701">total: float</text></g><!--class order--><g id="elem_order"><rect codeLine="97" fill="url(#g17rckn457wgvz0)" height="188.9688" id="order" rx="2.5" ry="2.5" style="stroke:#778899;stroke-width:1.0;" width="265" x="229" y="277.2969"/><rect fill="url(#g17rckn457wgvz0)" height="26.2969" rx="2.5" ry="2.5" style="stroke:url(#g17rckn457wgvz0);stroke-width:1.0;" width="265" x="229" y="277.2969"/><rect fill="url(#g17rckn457wgvz0)" height="2.5" style="stroke:url(#g17rckn457wgvz0);stroke-width:1.0;" width="265" x="229" y="301.0938"/><rect codeLine="97" fill="none" height="188.9688" id="order" rx="2.5" ry="2.5" style="stroke:#778899;stroke-width:1.0;" width="265" x="229" y="277.2969"/><text fill="#000000" font-family="sans-serif" font-size="14" lengthAdjust="spacing" textLength="39" x="342" y="295.292">order</text><line style="stroke:#778899;stroke-width:1.0;" x1="230" x2="493" y1="303.5938" y2="303.5938"/><line style="stroke:#778899;stroke-width:1.0;" x1="230" x2="493" y1="311.5938" y2="311.5938"/><ellipse cx="240" cy="325.2422" fill="#000000" rx="3" ry="3" style="stroke:#000000;stroke-width:1.0;"/><text fill="#000000" font-family="sans-serif" font-size="14" lengthAdjust="spacing" textLength="75" x="249" y="328.5889">id: integer</text><text fill="#000000" font-family="sans-serif" font-size="14" lengthAdjust="spacing" textLength="112" x="249" y="344.8857">user_id: integer</text><text fill="#000000" font-family="sans-serif" font-size="14" lengthAdjust="spacing" textLength="137" x="249" y="361.1826">address_id: integer</text><text fill="#000000" font-family="sans-serif" font-size="14" lengthAdjust="spacing" textLength="143" x="249" y="377.4795">discount_id: integer</text><text fill="#000000" font-family="sans-serif" font-size="14" lengthAdjust="spacing" textLength="111" x="249" y="393.7764">cart_id: integer</text><ellipse cx="240" cy="406.7266" fill="#000000" rx="3" ry="3" style="stroke:#000000;stroke-width:1.0;"/><text fill="#000000" font-family="sans-serif" font-size="14" lengthAdjust="spacing" textLength="239" x="249" y="410.0732">created_at: datetime_immutable</text><ellipse cx="240" cy="423.0234" fill="#000000" rx="3" ry="3" style="stroke:#000000;stroke-width:1.0;"/><text fill="#000000" font-family="sans-serif" font-size="14" lengthAdjust="spacing" textLength="95" x="249" y="426.3701">status: string</text><ellipse cx="240" cy="439.3203" fill="#000000" rx="3" ry="3" style="stroke:#000000;stroke-width:1.0;"/><text fill="#000000" font-family="sans-serif" font-size="14" lengthAdjust="spacing" textLength="129" x="249" y="442.667">is_active: boolean</text><text fill="#000000" font-family="sans-serif" font-size="14" lengthAdjust="spacing" textLength="114" x="249" y="458.9639">stripe_id: string</text></g><!--class order_line--><g id="elem_order_line"><rect codeLine="109" fill="url(#g17rckn457wgvz0)" height="140.0781" id="order_line" rx="2.5" ry="2.5" style="stroke:#778899;stroke-width:1.0;" width="165" x="311" y="60.7969"/><rect fill="url(#g17rckn457wgvz0)" height="26.2969" rx="2.5" ry="2.5" style="stroke:url(#g17rckn457wgvz0);stroke-width:1.0;" width="165" x="311" y="60.7969"/><rect fill="url(#g17rckn457wgvz0)" height="2.5" style="stroke:url(#g17rckn457wgvz0);stroke-width:1.0;" width="165" x="311" y="84.5938"/><rect codeLine="109" fill="none" height="140.0781" id="order_line" rx="2.5" ry="2.5" style="stroke:#778899;stroke-width:1.0;" width="165" x="311" y="60.7969"/><text fill="#000000" font-family="sans-serif" font-size="14" lengthAdjust="spacing" textLength="72" x="357.5" y="78.792">order_line</text><line style="stroke:#778899;stroke-width:1.0;" x1="312" x2="475" y1="87.0938" y2="87.0938"/><line style="stroke:#778899;stroke-width:1.0;" x1="312" x2="475" y1="95.0938" y2="95.0938"/><ellipse cx="322" cy="108.7422" fill="#000000" rx="3" ry="3" style="stroke:#000000;stroke-width:1.0;"/><text fill="#000000" font-family="sans-serif" font-size="14" lengthAdjust="spacing" textLength="75" x="331" y="112.0889">id: integer</text><text fill="#000000" font-family="sans-serif" font-size="14" lengthAdjust="spacing" textLength="139" x="331" y="128.3857">ordered_id: integer</text><ellipse cx="322" cy="141.3359" fill="#000000" rx="3" ry="3" style="stroke:#000000;stroke-width:1.0;"/><text fill="#000000" font-family="sans-serif" font-size="14" lengthAdjust="spacing" textLength="122" x="331" y="144.6826">quantity: integer</text><ellipse cx="322" cy="157.6328" fill="#000000" rx="3" ry="3" style="stroke:#000000;stroke-width:1.0;"/><text fill="#000000" font-family="sans-serif" font-size="14" lengthAdjust="spacing" textLength="80" x="331" y="160.9795">price: float</text><ellipse cx="322" cy="173.9297" fill="#000000" rx="3" ry="3" style="stroke:#000000;stroke-width:1.0;"/><text fill="#000000" font-family="sans-serif" font-size="14" lengthAdjust="spacing" textLength="78" x="331" y="177.2764">total: float</text><ellipse cx="322" cy="190.2266" fill="#000000" rx="3" ry="3" style="stroke:#000000;stroke-width:1.0;"/><text fill="#000000" font-family="sans-serif" font-size="14" lengthAdjust="spacing" textLength="134" x="331" y="193.5732">picture_id: integer</text></g><!--class photo--><g id="elem_photo"><rect codeLine="118" fill="url(#g17rckn457wgvz0)" height="123.7813" id="photo" rx="2.5" ry="2.5" style="stroke:#778899;stroke-width:1.0;" width="265" x="1560" y="68.7969"/><rect fill="url(#g17rckn457wgvz0)" height="26.2969" rx="2.5" ry="2.5" style="stroke:url(#g17rckn457wgvz0);stroke-width:1.0;" width="265" x="1560" y="68.7969"/><rect fill="url(#g17rckn457wgvz0)" height="2.5" style="stroke:url(#g17rckn457wgvz0);stroke-width:1.0;" width="265" x="1560" y="92.5938"/><rect codeLine="118" fill="none" height="123.7813" id="photo" rx="2.5" ry="2.5" style="stroke:#778899;stroke-width:1.0;" width="265" x="1560" y="68.7969"/><text fill="#000000" font-family="sans-serif" font-size="14" lengthAdjust="spacing" textLength="44" x="1670.5" y="86.792">photo</text><line style="stroke:#778899;stroke-width:1.0;" x1="1561" x2="1824" y1="95.0938" y2="95.0938"/><line style="stroke:#778899;stroke-width:1.0;" x1="1561" x2="1824" y1="103.0938" y2="103.0938"/><ellipse cx="1571" cy="116.7422" fill="#000000" rx="3" ry="3" style="stroke:#000000;stroke-width:1.0;"/><text fill="#000000" font-family="sans-serif" font-size="14" lengthAdjust="spacing" textLength="75" x="1580" y="120.0889">id: integer</text><ellipse cx="1571" cy="133.0391" fill="#000000" rx="3" ry="3" style="stroke:#000000;stroke-width:1.0;"/><text fill="#000000" font-family="sans-serif" font-size="14" lengthAdjust="spacing" textLength="91" x="1580" y="136.3857">name: string</text><ellipse cx="1571" cy="149.3359" fill="#000000" rx="3" ry="3" style="stroke:#000000;stroke-width:1.0;"/><text fill="#000000" font-family="sans-serif" font-size="14" lengthAdjust="spacing" textLength="239" x="1580" y="152.6826">created_at: datetime_immutable</text><ellipse cx="1571" cy="165.6328" fill="#000000" rx="3" ry="3" style="stroke:#000000;stroke-width:1.0;"/><text fill="#000000" font-family="sans-serif" font-size="14" lengthAdjust="spacing" textLength="129" x="1580" y="168.9795">is_active: boolean</text><ellipse cx="1571" cy="181.9297" fill="#000000" rx="3" ry="3" style="stroke:#000000;stroke-width:1.0;"/><text fill="#000000" font-family="sans-serif" font-size="14" lengthAdjust="spacing" textLength="85" x="1580" y="185.2764">path: string</text></g><!--class picture--><g id="elem_picture"><rect codeLine="126" fill="url(#g17rckn457wgvz0)" height="172.6719" id="picture" rx="2.5" ry="2.5" style="stroke:#778899;stroke-width:1.0;" width="265" x="1025" y="44.2969"/><rect fill="url(#g17rckn457wgvz0)" height="26.2969" rx="2.5" ry="2.5" style="stroke:url(#g17rckn457wgvz0);stroke-width:1.0;" width="265" x="1025" y="44.2969"/><rect fill="url(#g17rckn457wgvz0)" height="2.5" style="stroke:url(#g17rckn457wgvz0);stroke-width:1.0;" width="265" x="1025" y="68.0938"/><rect codeLine="126" fill="none" height="172.6719" id="picture" rx="2.5" ry="2.5" style="stroke:#778899;stroke-width:1.0;" width="265" x="1025" y="44.2969"/><text fill="#000000" font-family="sans-serif" font-size="14" lengthAdjust="spacing" textLength="52" x="1131.5" y="62.292">picture</text><line style="stroke:#778899;stroke-width:1.0;" x1="1026" x2="1289" y1="70.5938" y2="70.5938"/><line style="stroke:#778899;stroke-width:1.0;" x1="1026" x2="1289" y1="78.5938" y2="78.5938"/><ellipse cx="1036" cy="92.2422" fill="#000000" rx="3" ry="3" style="stroke:#000000;stroke-width:1.0;"/><text fill="#000000" font-family="sans-serif" font-size="14" lengthAdjust="spacing" textLength="75" x="1045" y="95.5889">id: integer</text><text fill="#000000" font-family="sans-serif" font-size="14" lengthAdjust="spacing" textLength="126" x="1045" y="111.8857">album_id: integer</text><text fill="#000000" font-family="sans-serif" font-size="14" lengthAdjust="spacing" textLength="139" x="1045" y="128.1826">product_id: integer</text><ellipse cx="1036" cy="141.1328" fill="#000000" rx="3" ry="3" style="stroke:#000000;stroke-width:1.0;"/><text fill="#000000" font-family="sans-serif" font-size="14" lengthAdjust="spacing" textLength="91" x="1045" y="144.4795">name: string</text><ellipse cx="1036" cy="157.4297" fill="#000000" rx="3" ry="3" style="stroke:#000000;stroke-width:1.0;"/><text fill="#000000" font-family="sans-serif" font-size="14" lengthAdjust="spacing" textLength="121" x="1045" y="160.7764">file_name: string</text><ellipse cx="1036" cy="173.7266" fill="#000000" rx="3" ry="3" style="stroke:#000000;stroke-width:1.0;"/><text fill="#000000" font-family="sans-serif" font-size="14" lengthAdjust="spacing" textLength="239" x="1045" y="177.0732">created_at: datetime_immutable</text><ellipse cx="1036" cy="190.0234" fill="#000000" rx="3" ry="3" style="stroke:#000000;stroke-width:1.0;"/><text fill="#000000" font-family="sans-serif" font-size="14" lengthAdjust="spacing" textLength="129" x="1045" y="193.3701">is_active: boolean</text><ellipse cx="1036" cy="206.3203" fill="#000000" rx="3" ry="3" style="stroke:#000000;stroke-width:1.0;"/><text fill="#000000" font-family="sans-serif" font-size="14" lengthAdjust="spacing" textLength="124" x="1045" y="209.667">thumbnail: string</text></g><!--class products--><g id="elem_products"><rect codeLine="137" fill="url(#g17rckn457wgvz0)" height="156.375" id="products" rx="2.5" ry="2.5" style="stroke:#778899;stroke-width:1.0;" width="269" x="1177" y="583.2969"/><rect fill="url(#g17rckn457wgvz0)" height="26.2969" rx="2.5" ry="2.5" style="stroke:url(#g17rckn457wgvz0);stroke-width:1.0;" width="269" x="1177" y="583.2969"/><rect fill="url(#g17rckn457wgvz0)" height="2.5" style="stroke:url(#g17rckn457wgvz0);stroke-width:1.0;" width="269" x="1177" y="607.0938"/><rect codeLine="137" fill="none" height="156.375" id="products" rx="2.5" ry="2.5" style="stroke:#778899;stroke-width:1.0;" width="269" x="1177" y="583.2969"/><text fill="#000000" font-family="sans-serif" font-size="14" lengthAdjust="spacing" textLength="64" x="1279.5" y="601.292">products</text><line style="stroke:#778899;stroke-width:1.0;" x1="1178" x2="1445" y1="609.5938" y2="609.5938"/><line style="stroke:#778899;stroke-width:1.0;" x1="1178" x2="1445" y1="617.5938" y2="617.5938"/><ellipse cx="1188" cy="631.2422" fill="#000000" rx="3" ry="3" style="stroke:#000000;stroke-width:1.0;"/><text fill="#000000" font-family="sans-serif" font-size="14" lengthAdjust="spacing" textLength="75" x="1197" y="634.5889">id: integer</text><ellipse cx="1188" cy="647.5391" fill="#000000" rx="3" ry="3" style="stroke:#000000;stroke-width:1.0;"/><text fill="#000000" font-family="sans-serif" font-size="14" lengthAdjust="spacing" textLength="91" x="1197" y="650.8857">name: string</text><ellipse cx="1188" cy="663.8359" fill="#000000" rx="3" ry="3" style="stroke:#000000;stroke-width:1.0;"/><text fill="#000000" font-family="sans-serif" font-size="14" lengthAdjust="spacing" textLength="80" x="1197" y="667.1826">price: float</text><ellipse cx="1188" cy="680.1328" fill="#000000" rx="3" ry="3" style="stroke:#000000;stroke-width:1.0;"/><text fill="#000000" font-family="sans-serif" font-size="14" lengthAdjust="spacing" textLength="239" x="1197" y="683.4795">created_at: datetime_immutable</text><text fill="#000000" font-family="sans-serif" font-size="14" lengthAdjust="spacing" textLength="243" x="1197" y="699.7764">updated_at: datetime_immutable</text><ellipse cx="1188" cy="712.7266" fill="#000000" rx="3" ry="3" style="stroke:#000000;stroke-width:1.0;"/><text fill="#000000" font-family="sans-serif" font-size="14" lengthAdjust="spacing" textLength="129" x="1197" y="716.0732">is_active: boolean</text><text fill="#000000" font-family="sans-serif" font-size="14" lengthAdjust="spacing" textLength="122" x="1197" y="732.3701">description: text</text></g><!--class user--><g id="elem_user"><rect codeLine="147" fill="url(#g17rckn457wgvz0)" height="140.0781" id="user" rx="2.5" ry="2.5" style="stroke:#778899;stroke-width:1.0;" width="165" x="153" y="856.2969"/><rect fill="url(#g17rckn457wgvz0)" height="26.2969" rx="2.5" ry="2.5" style="stroke:url(#g17rckn457wgvz0);stroke-width:1.0;" width="165" x="153" y="856.2969"/><rect fill="url(#g17rckn457wgvz0)" height="2.5" style="stroke:url(#g17rckn457wgvz0);stroke-width:1.0;" width="165" x="153" y="880.0938"/><rect codeLine="147" fill="none" height="140.0781" id="user" rx="2.5" ry="2.5" style="stroke:#778899;stroke-width:1.0;" width="165" x="153" y="856.2969"/><text fill="#000000" font-family="sans-serif" font-size="14" lengthAdjust="spacing" textLength="30" x="220.5" y="874.292">user</text><line style="stroke:#778899;stroke-width:1.0;" x1="154" x2="317" y1="882.5938" y2="882.5938"/><line style="stroke:#778899;stroke-width:1.0;" x1="154" x2="317" y1="890.5938" y2="890.5938"/><ellipse cx="164" cy="904.2422" fill="#000000" rx="3" ry="3" style="stroke:#000000;stroke-width:1.0;"/><text fill="#000000" font-family="sans-serif" font-size="14" lengthAdjust="spacing" textLength="75" x="173" y="907.5889">id: integer</text><ellipse cx="164" cy="920.5391" fill="#000000" rx="3" ry="3" style="stroke:#000000;stroke-width:1.0;"/><text fill="#000000" font-family="sans-serif" font-size="14" lengthAdjust="spacing" textLength="90" x="173" y="923.8857">email: string</text><ellipse cx="164" cy="936.8359" fill="#000000" rx="3" ry="3" style="stroke:#000000;stroke-width:1.0;"/><text fill="#000000" font-family="sans-serif" font-size="14" lengthAdjust="spacing" textLength="73" x="173" y="940.1826">roles: json</text><ellipse cx="164" cy="953.1328" fill="#000000" rx="3" ry="3" style="stroke:#000000;stroke-width:1.0;"/><text fill="#000000" font-family="sans-serif" font-size="14" lengthAdjust="spacing" textLength="118" x="173" y="956.4795">password: string</text><ellipse cx="164" cy="969.4297" fill="#000000" rx="3" ry="3" style="stroke:#000000;stroke-width:1.0;"/><text fill="#000000" font-family="sans-serif" font-size="14" lengthAdjust="spacing" textLength="103" x="173" y="972.7764">pseudo: string</text><text fill="#000000" font-family="sans-serif" font-size="14" lengthAdjust="spacing" textLength="139" x="173" y="989.0732">reset_token: string</text></g><!--link address to user--><g id="link_address_user"><path codeLine="156" d="M214.5,804.5139 C214.5,804.5139 214.5,848.2499 214.5,848.2499 " fill="none" id="address-user" style="stroke:#333333;stroke-width:1.5;"/><line style="stroke:#333333;stroke-width:1.5;" x1="214.5" x2="208.5" y1="804.5139" y2="796.5139"/><line style="stroke:#333333;stroke-width:1.5;" x1="214.5" x2="220.5" y1="804.5139" y2="796.5139"/><line style="stroke:#333333;stroke-width:1.5;" x1="214.5" x2="214.5" y1="804.5139" y2="796.5139"/><ellipse cx="214.5" cy="810.5139" fill="none" rx="4" ry="4" style="stroke:#333333;stroke-width:1.5;"/><line style="stroke:#333333;stroke-width:1.5;" x1="214.5" x2="214.5" y1="844.7499" y2="856.2499"/><ellipse cx="214.5" cy="844.7499" fill="none" rx="4.5" ry="4.5" style="stroke:#333333;stroke-width:1.5;"/><line style="stroke:#333333;stroke-width:1.5;" x1="219" x2="210" y1="852.2499" y2="852.2499"/></g><!--link album to products--><g id="link_album_products"><path codeLine="157" d="M1217.5,474.5899 C1217.5,474.5899 1217.5,575.2099 1217.5,575.2099 " fill="none" id="album-products" style="stroke:#333333;stroke-width:1.5;"/><line style="stroke:#333333;stroke-width:1.5;" x1="1217.5" x2="1211.5" y1="474.5899" y2="466.5899"/><line style="stroke:#333333;stroke-width:1.5;" x1="1217.5" x2="1223.5" y1="474.5899" y2="466.5899"/><line style="stroke:#333333;stroke-width:1.5;" x1="1217.5" x2="1217.5" y1="474.5899" y2="466.5899"/><ellipse cx="1217.5" cy="480.5899" fill="none" rx="4" ry="4" style="stroke:#333333;stroke-width:1.5;"/><line style="stroke:#333333;stroke-width:1.5;" x1="1217.5" x2="1217.5" y1="571.7099" y2="583.2099"/><ellipse cx="1217.5" cy="571.7099" fill="none" rx="4.5" ry="4.5" style="stroke:#333333;stroke-width:1.5;"/><line style="stroke:#333333;stroke-width:1.5;" x1="1222" x2="1213" y1="579.2099" y2="579.2099"/></g><!--link album to category--><g id="link_album_category"><path codeLine="158" d="M1067.5,474.5899 C1067.5,474.5899 1067.5,599.7129 1067.5,599.7129 " fill="none" id="album-category" style="stroke:#333333;stroke-width:1.5;"/><line style="stroke:#333333;stroke-width:1.5;" x1="1067.5" x2="1061.5" y1="474.5899" y2="466.5899"/><line style="stroke:#333333;stroke-width:1.5;" x1="1067.5" x2="1073.5" y1="474.5899" y2="466.5899"/><line style="stroke:#333333;stroke-width:1.5;" x1="1067.5" x2="1067.5" y1="474.5899" y2="466.5899"/><ellipse cx="1067.5" cy="480.5899" fill="none" rx="4" ry="4" style="stroke:#333333;stroke-width:1.5;"/><line style="stroke:#333333;stroke-width:1.5;" x1="1071.5" x2="1063.5" y1="603.7129" y2="603.7129"/><line style="stroke:#333333;stroke-width:1.5;" x1="1071.5" x2="1063.5" y1="600.7129" y2="600.7129"/><line style="stroke:#333333;stroke-width:1.5;" x1="1067.5" x2="1067.5" y1="599.7129" y2="607.7129"/></g><!--link cart_line to cart--><g id="link_cart_line_cart"><path codeLine="159" d="M787.5,441.9019 C787.5,441.9019 787.5,615.6319 787.5,615.6319 " fill="none" id="cart_line-cart" style="stroke:#333333;stroke-width:1.5;"/><line style="stroke:#333333;stroke-width:1.5;" x1="787.5" x2="781.5" y1="441.9019" y2="433.9019"/><line style="stroke:#333333;stroke-width:1.5;" x1="787.5" x2="793.5" y1="441.9019" y2="433.9019"/><line style="stroke:#333333;stroke-width:1.5;" x1="787.5" x2="787.5" y1="441.9019" y2="433.9019"/><ellipse cx="787.5" cy="447.9019" fill="none" rx="4" ry="4" style="stroke:#333333;stroke-width:1.5;"/><line style="stroke:#333333;stroke-width:1.5;" x1="787.5" x2="787.5" y1="612.1319" y2="623.6319"/><ellipse cx="787.5" cy="612.1319" fill="none" rx="4.5" ry="4.5" style="stroke:#333333;stroke-width:1.5;"/><line style="stroke:#333333;stroke-width:1.5;" x1="792" x2="783" y1="619.6319" y2="619.6319"/></g><!--link film to director--><g id="link_film_director"><path codeLine="160" d="M1441.5,200.8599 C1441.5,200.8599 1441.5,317.9309 1441.5,317.9309 " fill="none" id="film-director" style="stroke:#333333;stroke-width:1.5;"/><line style="stroke:#333333;stroke-width:1.5;" x1="1441.5" x2="1435.5" y1="200.8599" y2="192.8599"/><line style="stroke:#333333;stroke-width:1.5;" x1="1441.5" x2="1447.5" y1="200.8599" y2="192.8599"/><line style="stroke:#333333;stroke-width:1.5;" x1="1441.5" x2="1441.5" y1="200.8599" y2="192.8599"/><ellipse cx="1441.5" cy="206.8599" fill="none" rx="4" ry="4" style="stroke:#333333;stroke-width:1.5;"/><line style="stroke:#333333;stroke-width:1.5;" x1="1441.5" x2="1441.5" y1="314.4309" y2="325.9309"/><ellipse cx="1441.5" cy="314.4309" fill="none" rx="4.5" ry="4.5" style="stroke:#333333;stroke-width:1.5;"/><line style="stroke:#333333;stroke-width:1.5;" x1="1446" x2="1437" y1="321.9309" y2="321.9309"/></g><!--link invoice to order--><g id="link_invoice_order"><path codeLine="161" d="M252.5,217.0429 C252.5,217.0429 252.5,269.1179 252.5,269.1179 " fill="none" id="invoice-order" style="stroke:#333333;stroke-width:1.5;"/><line style="stroke:#333333;stroke-width:1.5;" x1="252.5" x2="252.5" y1="220.5429" y2="209.0429"/><ellipse cx="252.5" cy="220.5429" fill="none" rx="4.5" ry="4.5" style="stroke:#333333;stroke-width:1.5;"/><line style="stroke:#333333;stroke-width:1.5;" x1="248" x2="257" y1="213.0429" y2="213.0429"/><line style="stroke:#333333;stroke-width:1.5;" x1="252.5" x2="252.5" y1="265.6179" y2="277.1179"/><ellipse cx="252.5" cy="265.6179" fill="none" rx="4.5" ry="4.5" style="stroke:#333333;stroke-width:1.5;"/><line style="stroke:#333333;stroke-width:1.5;" x1="257" x2="248" y1="273.1179" y2="273.1179"/></g><!--link invoice to address--><g id="link_invoice_address"><path codeLine="162" d="M118,217.0739 C118,217.0739 118,518.0679 118,518.0679 " fill="none" id="invoice-address" style="stroke:#333333;stroke-width:1.5;"/><line style="stroke:#333333;stroke-width:1.5;" x1="118" x2="112" y1="217.0739" y2="209.0739"/><line style="stroke:#333333;stroke-width:1.5;" x1="118" x2="124" y1="217.0739" y2="209.0739"/><line style="stroke:#333333;stroke-width:1.5;" x1="118" x2="118" y1="217.0739" y2="209.0739"/><ellipse cx="118" cy="223.0739" fill="none" rx="4" ry="4" style="stroke:#333333;stroke-width:1.5;"/><line style="stroke:#333333;stroke-width:1.5;" x1="118" x2="118" y1="514.5679" y2="526.0679"/><ellipse cx="118" cy="514.5679" fill="none" rx="4.5" ry="4.5" style="stroke:#333333;stroke-width:1.5;"/><line style="stroke:#333333;stroke-width:1.5;" x1="122.5" x2="113.5" y1="522.0679" y2="522.0679"/></g><!--link order to cart--><g id="link_order_cart"><path codeLine="163" d="M502.064,450.2969 C502.064,450.2969 737.5,450.2969 737.5,450.2969 C737.5,450.2969 737.5,615.5739 737.5,615.5739 " fill="none" id="order-cart" style="stroke:#333333;stroke-width:1.5;"/><line style="stroke:#333333;stroke-width:1.5;" x1="505.564" x2="494.064" y1="450.2969" y2="450.2969"/><ellipse cx="505.564" cy="450.2969" fill="none" rx="4.5" ry="4.5" style="stroke:#333333;stroke-width:1.5;"/><line style="stroke:#333333;stroke-width:1.5;" x1="498.064" x2="498.064" y1="454.7969" y2="445.7969"/><line style="stroke:#333333;stroke-width:1.5;" x1="737.5" x2="737.5" y1="612.0739" y2="623.5739"/><ellipse cx="737.5" cy="612.0739" fill="none" rx="4.5" ry="4.5" style="stroke:#333333;stroke-width:1.5;"/><line style="stroke:#333333;stroke-width:1.5;" x1="742" x2="733" y1="619.5739" y2="619.5739"/></g><!--link order to address--><g id="link_order_address"><path codeLine="164" d="M252.5,474.5899 C252.5,474.5899 252.5,518.1119 252.5,518.1119 " fill="none" id="order-address" style="stroke:#333333;stroke-width:1.5;"/><line style="stroke:#333333;stroke-width:1.5;" x1="252.5" x2="246.5" y1="474.5899" y2="466.5899"/><line style="stroke:#333333;stroke-width:1.5;" x1="252.5" x2="258.5" y1="474.5899" y2="466.5899"/><line style="stroke:#333333;stroke-width:1.5;" x1="252.5" x2="252.5" y1="474.5899" y2="466.5899"/><ellipse cx="252.5" cy="480.5899" fill="none" rx="4" ry="4" style="stroke:#333333;stroke-width:1.5;"/><line style="stroke:#333333;stroke-width:1.5;" x1="252.5" x2="252.5" y1="514.6119" y2="526.1119"/><ellipse cx="252.5" cy="514.6119" fill="none" rx="4.5" ry="4.5" style="stroke:#333333;stroke-width:1.5;"/><line style="stroke:#333333;stroke-width:1.5;" x1="257" x2="248" y1="522.1119" y2="522.1119"/></g><!--link order to discount--><g id="link_order_discount"><path codeLine="165" d="M438.5,474.5899 C438.5,474.5899 438.5,583.0899 438.5,583.0899 " fill="none" id="order-discount" style="stroke:#333333;stroke-width:1.5;"/><line style="stroke:#333333;stroke-width:1.5;" x1="438.5" x2="432.5" y1="474.5899" y2="466.5899"/><line style="stroke:#333333;stroke-width:1.5;" x1="438.5" x2="444.5" y1="474.5899" y2="466.5899"/><line style="stroke:#333333;stroke-width:1.5;" x1="438.5" x2="438.5" y1="474.5899" y2="466.5899"/><ellipse cx="438.5" cy="480.5899" fill="none" rx="4" ry="4" style="stroke:#333333;stroke-width:1.5;"/><line style="stroke:#333333;stroke-width:1.5;" x1="438.5" x2="438.5" y1="579.5899" y2="591.0899"/><ellipse cx="438.5" cy="579.5899" fill="none" rx="4.5" ry="4.5" style="stroke:#333333;stroke-width:1.5;"/><line style="stroke:#333333;stroke-width:1.5;" x1="443" x2="434" y1="587.0899" y2="587.0899"/></g><!--link order to user--><g id="link_order_user"><path codeLine="166" d="M297,474.4889 C297,474.4889 297,848.1659 297,848.1659 " fill="none" id="order-user" style="stroke:#333333;stroke-width:1.5;"/><line style="stroke:#333333;stroke-width:1.5;" x1="297" x2="291" y1="474.4889" y2="466.4889"/><line style="stroke:#333333;stroke-width:1.5;" x1="297" x2="303" y1="474.4889" y2="466.4889"/><line style="stroke:#333333;stroke-width:1.5;" x1="297" x2="297" y1="474.4889" y2="466.4889"/><ellipse cx="297" cy="480.4889" fill="none" rx="4" ry="4" style="stroke:#333333;stroke-width:1.5;"/><line style="stroke:#333333;stroke-width:1.5;" x1="297" x2="297" y1="844.6659" y2="856.1659"/><ellipse cx="297" cy="844.6659" fill="none" rx="4.5" ry="4.5" style="stroke:#333333;stroke-width:1.5;"/><line style="stroke:#333333;stroke-width:1.5;" x1="301.5" x2="292.5" y1="852.1659" y2="852.1659"/></g><!--link order_line to order--><g id="link_order_line_order"><path codeLine="167" d="M393.5,208.8279 C393.5,208.8279 393.5,268.9259 393.5,268.9259 " fill="none" id="order_line-order" style="stroke:#333333;stroke-width:1.5;"/><line style="stroke:#333333;stroke-width:1.5;" x1="393.5" x2="387.5" y1="208.8279" y2="200.8279"/><line style="stroke:#333333;stroke-width:1.5;" x1="393.5" x2="399.5" y1="208.8279" y2="200.8279"/><line style="stroke:#333333;stroke-width:1.5;" x1="393.5" x2="393.5" y1="208.8279" y2="200.8279"/><ellipse cx="393.5" cy="214.8279" fill="none" rx="4" ry="4" style="stroke:#333333;stroke-width:1.5;"/><line style="stroke:#333333;stroke-width:1.5;" x1="393.5" x2="393.5" y1="265.4259" y2="276.9259"/><ellipse cx="393.5" cy="265.4259" fill="none" rx="4.5" ry="4.5" style="stroke:#333333;stroke-width:1.5;"/><line style="stroke:#333333;stroke-width:1.5;" x1="398" x2="389" y1="272.9259" y2="272.9259"/></g><!--link picture to products--><g id="link_picture_products"><path codeLine="168" d="M1274,225.5079 C1274,225.5079 1274,575.2269 1274,575.2269 " fill="none" id="picture-products" style="stroke:#333333;stroke-width:1.5;"/><line style="stroke:#333333;stroke-width:1.5;" x1="1274" x2="1268" y1="225.5079" y2="217.5079"/><line style="stroke:#333333;stroke-width:1.5;" x1="1274" x2="1280" y1="225.5079" y2="217.5079"/><line style="stroke:#333333;stroke-width:1.5;" x1="1274" x2="1274" y1="225.5079" y2="217.5079"/><ellipse cx="1274" cy="231.5079" fill="none" rx="4" ry="4" style="stroke:#333333;stroke-width:1.5;"/><line style="stroke:#333333;stroke-width:1.5;" x1="1274" x2="1274" y1="571.7269" y2="583.2269"/><ellipse cx="1274" cy="571.7269" fill="none" rx="4.5" ry="4.5" style="stroke:#333333;stroke-width:1.5;"/><line style="stroke:#333333;stroke-width:1.5;" x1="1278.5" x2="1269.5" y1="579.2269" y2="579.2269"/></g><!--link picture to album--><g id="link_picture_album"><path codeLine="169" d="M1141.5,225.4629 C1141.5,225.4629 1141.5,268.9249 1141.5,268.9249 " fill="none" id="picture-album" style="stroke:#333333;stroke-width:1.5;"/><line style="stroke:#333333;stroke-width:1.5;" x1="1141.5" x2="1135.5" y1="225.4629" y2="217.4629"/><line style="stroke:#333333;stroke-width:1.5;" x1="1141.5" x2="1147.5" y1="225.4629" y2="217.4629"/><line style="stroke:#333333;stroke-width:1.5;" x1="1141.5" x2="1141.5" y1="225.4629" y2="217.4629"/><ellipse cx="1141.5" cy="231.4629" fill="none" rx="4" ry="4" style="stroke:#333333;stroke-width:1.5;"/><line style="stroke:#333333;stroke-width:1.5;" x1="1141.5" x2="1141.5" y1="265.4249" y2="276.9249"/><ellipse cx="1141.5" cy="265.4249" fill="none" rx="4.5" ry="4.5" style="stroke:#333333;stroke-width:1.5;"/><line style="stroke:#333333;stroke-width:1.5;" x1="1146" x2="1137" y1="272.9249" y2="272.9249"/></g><!--SRC=[hLR1Rjim3BtxAmJq5Y33YgANtBe26mfqQu4MwD5G9IRMOekUHBSDblxxQDbnv4HBkhKt-uao-PxuA1T6Wu2gffMee7e4vxEYXPHngeJCBusjfPELk70Edo-nH2TEpixETbVk2wEM5hmNfv_EeyNBKdh_HQhbmc5ZTVU1Xy8GJ2zkRw-lBY_khsv-x6r0fy5rmTTcKT1TAGc-ERbAHqRPeu3lneQO1wEf4AVddwErQsFXVbM3k75KOBHmLqYDpyOkn5oMFbRWbbd81UoIEG58HKKCqX5VqT8ThKeG5bqboumCjIzrdO7bvvMGMhkMq-ziEiqcmkYPC9PW0IuJZGUNnyX4M5d1J7XoN3o_petpj8En6cD8AAngQLTHJ9yrGchq9Ci8K5nT_CfYaDiYeYxGnccDppsKe0Yuu4V44gHjzpdWKzMvf9dG_4IcWjnKLKFoaNjFDBK-jFuww5G-DbLA9Kx1snReLYEfHErGDueEwtUiEeLFV0IrKTIuU5-5pl9JJ9JvIqNc2RQWW9VQE3ZAJKb7oGPGY4i3WKAVUhGdBxd1qnlRrR4S7OSnU8p-hqQ6RDijKVvEzFIH_AFCRsq2pMegOhSbaxQDduyxF_XZZ4KVyw6fqnyBHeqeE2vh9kObIde_8JQW8yEproUKdPiosUW3-_nGfKA3LyxKPD2Ep4guBu6nJsXKkeN2R6CA8x2V6xkcQjfBvUFEMn26MTIfFLGRAdhRe4mMEfnuVjWhH-kVC5D9ZHzFlpttjujrshs1oj_jcz9-ad0ZZst7vxVjov5mawJfXnf2Jto4VPFiERcaOfzvNrAITfZn_p75sJ6GVqZDL70hMsdAHE5T9VvDYkqSoxl7HQgzHaOdU8cSqleXNITKCJaUQnY6q4-FtP5v_ypD5pFnqEZjw13iAg2SS0asqcZp5_EAqockG_wikx5xPADUXAxNmoMIRM-pFhu5iZ09Us0p_BBDp5ftUB3A0FR1VJbPDp7MqISx91as9Eg6n1WDZ2BNliRPDpszotK73zJ_0000]--></g></svg>